<?xml version="1.0" encoding="utf-8"?>
<!-- Uploaded to: SVG Repo, www.svgrepo.com, Generator: SVG Repo Mixer Tools -->
<svg width="800px" height="800px" viewBox="0 0 1024 1024" class="icon"  version="1.1" xmlns="http://www.w3.org/2000/svg"><path d="M420.41344 542.85312m-382.27456 0a382.27456 382.27456 0 1 0 764.54912 0 382.27456 382.27456 0 1 0-764.54912 0Z" fill="#FFC700" /><path d="M420.41344 933.02272c-215.1424 0-390.17472-175.02208-390.17472-390.1696s175.03232-390.1696 390.17472-390.1696 390.17472 175.02208 390.17472 390.1696-175.03232 390.1696-390.17472 390.1696z m0-764.54912c-206.43328 0-374.3744 167.94624-374.3744 374.37952s167.94112 374.37952 374.3744 374.37952 374.3744-167.94624 374.3744-374.37952-167.94112-374.37952-374.3744-374.37952z" fill="#6C0000" /><path d="M118.25152 299.19744h95.1296V320h-95.1296zM262.15936 299.19744h200.832V320H262.15936zM511.7696 299.19744h213.96992V320H511.7696zM52.56704 411.5968h126.99648v20.80256H52.56704zM335.99488 411.5968h352.51712v20.80256H335.99488zM734.49472 411.5968h52.55168v20.80256h-52.55168zM35.05152 523.99616H273.7152v20.80256H35.05152zM102.92736 748.2624h269.31712v21.85728H102.92736zM599.83872 748.2624h142.32064v21.85728h-142.32064zM52.56704 636.3904h72.25344v20.80256H52.56704zM271.52384 636.3904h284.64128v20.80256H271.52384zM663.45472 636.3904h129.18272v20.80256h-129.18272z" fill="#6C0000" /><path d="M891.41248 220.25216m-97.77152 0a97.77152 97.77152 0 1 0 195.54304 0 97.77152 97.77152 0 1 0-195.54304 0Z" fill="#FFEC43" /><path d="M891.41248 325.91872c-58.2656 0-105.67168-47.39584-105.67168-105.66656s47.40608-105.66656 105.67168-105.66656c58.2656 0 105.67168 47.39584 105.67168 105.66656s-47.40608 105.66656-105.67168 105.66656z m0-195.54304c-49.55136 0-89.87136 40.32-89.87136 89.87648s40.31488 89.87648 89.87136 89.87648 89.87136-40.32 89.87136-89.87648-40.31488-89.87648-89.87136-89.87648z" fill="#6B0204" /><path d="M920.04352 136.15616c28.672 14.5664 40.81152 48.62976 36.992 82.55488-8.33536 74.04544-96.70656 82.03264-105.56928 79.08864a88.89344 88.89344 0 0 0 40.37632 9.6512c48.98304 0 88.68864-39.36768 88.68864-87.93088 0-38.784-25.33888-71.68-60.48768-83.36384z" fill="#FFC700" /></svg>